<?xml version="1.0" encoding="utf-8"?>
<!-- Generator: Adobe Illustrator 21.0.2, SVG Export Plug-In . SVG Version: 6.00 Build 0)  -->
<svg version="1.1" id="Layer_1" xmlns="http://www.w3.org/2000/svg" xmlns:xlink="http://www.w3.org/1999/xlink" x="0px" y="0px"
	 viewBox="0 0 246.1 37" style="enable-background:new 0 0 246.1 37;" xml:space="preserve">
<style type="text/css">
	.st0{fill:#D1FF30;}
	.st1{fill:#FFFFFF;}
</style>
<path class="st0" d="M19.5,0L0,14.2L7.4,37h24L39,14.2L19.5,0z M24.3,33.2H11.4l2.5-7.5L24.3,33.2z M8.1,13l7.8-5.7L14,13H8.1z
	 M12.9,16.9L12,19.6l-3.8-2.7H12.9z M34.2,16.9l-4.9,15.3l-14-10.1l1.7-5.1h17.3V16.9z M18.1,13l2.5-7.5L30.9,13H18.1z M10.7,23.4
	l-1.8,5.7l-3-9.1L10.7,23.4z"/>
<g>
	<path class="st1" d="M50.5,16.2h-5.4V13h14.6v3.2h-5.4v13.6h-3.9V16.2z"/>
	<path class="st1" d="M73.3,18.1c1,1,1.5,2.4,1.5,4.3v7.4H71V23c0-1-0.2-1.8-0.7-2.3c-0.4-0.5-1.1-0.8-1.9-0.8
		c-0.9,0-1.7,0.3-2.3,0.9c-0.6,0.6-0.8,1.5-0.8,2.6v6.4h-3.7V12h3.7v6.2c0.5-0.5,1.1-0.9,1.8-1.1s1.5-0.4,2.3-0.4
		C71,16.7,72.3,17.2,73.3,18.1z"/>
	<path class="st1" d="M90.9,24.4h-9.8c0.2,0.8,0.6,1.4,1.2,1.9s1.5,0.7,2.4,0.7c0.7,0,1.3-0.1,1.8-0.3c0.5-0.2,1-0.5,1.5-0.9l2,2.2
		c-1.2,1.4-3,2.1-5.3,2.1c-1.5,0-2.7-0.3-3.9-0.9c-1.1-0.6-2-1.4-2.6-2.4c-0.6-1-0.9-2.2-0.9-3.4c0-1.3,0.3-2.4,0.9-3.4
		c0.6-1,1.4-1.8,2.5-2.4c1-0.6,2.2-0.9,3.5-0.9c1.3,0,2.4,0.3,3.4,0.8c1,0.5,1.8,1.3,2.4,2.3c0.6,1,0.9,2.2,0.9,3.5
		C90.9,23.4,90.9,23.8,90.9,24.4z M82.1,20.2c-0.6,0.5-0.9,1.1-1.1,2h6.4c-0.1-0.8-0.5-1.5-1.1-2s-1.3-0.7-2.1-0.7
		C83.4,19.5,82.7,19.8,82.1,20.2z"/>
	<path class="st1" d="M105.1,21.1h3.6v6.8c-0.9,0.7-2,1.2-3.2,1.6c-1.2,0.4-2.4,0.6-3.6,0.6c-1.7,0-3.3-0.4-4.7-1.1
		c-1.4-0.7-2.5-1.8-3.3-3.1s-1.2-2.8-1.2-4.5c0-1.7,0.4-3.2,1.2-4.5s1.9-2.4,3.3-3.1c1.4-0.7,3-1.1,4.8-1.1c1.5,0,2.8,0.2,4,0.7
		s2.2,1.2,3,2.2l-2.5,2.3c-1.2-1.3-2.6-1.9-4.3-1.9c-1.1,0-2,0.2-2.9,0.7c-0.8,0.4-1.5,1.1-1.9,1.9s-0.7,1.8-0.7,2.8
		c0,1,0.2,2,0.7,2.8c0.5,0.8,1.1,1.5,1.9,1.9c0.8,0.5,1.8,0.7,2.8,0.7c1.1,0,2.1-0.2,3-0.7V21.1z"/>
	<path class="st1" d="M124.5,24.4h-9.8c0.2,0.8,0.6,1.4,1.2,1.9c0.7,0.5,1.5,0.7,2.4,0.7c0.7,0,1.3-0.1,1.8-0.3
		c0.5-0.2,1-0.5,1.5-0.9l2,2.2c-1.2,1.4-3,2.1-5.3,2.1c-1.5,0-2.7-0.3-3.9-0.9c-1.1-0.6-2-1.4-2.6-2.4c-0.6-1-0.9-2.2-0.9-3.4
		c0-1.3,0.3-2.4,0.9-3.4c0.6-1,1.4-1.8,2.5-2.4c1-0.6,2.2-0.9,3.5-0.9c1.3,0,2.4,0.3,3.4,0.8c1,0.5,1.8,1.3,2.4,2.3
		c0.6,1,0.9,2.2,0.9,3.5C124.6,23.4,124.6,23.8,124.5,24.4z M115.8,20.2c-0.6,0.5-0.9,1.1-1.1,2h6.4c-0.1-0.8-0.5-1.5-1.1-2
		s-1.3-0.7-2.1-0.7C117,19.5,116.3,19.8,115.8,20.2z"/>
	<path class="st1" d="M147.5,18.1c1,1,1.4,2.4,1.4,4.3v7.4h-3.7V23c0-1-0.2-1.8-0.6-2.3c-0.4-0.5-1-0.8-1.8-0.8
		c-0.9,0-1.6,0.3-2.1,0.9c-0.5,0.6-0.8,1.4-0.8,2.5v6.5h-3.7V23c0-2-0.8-3-2.4-3c-0.9,0-1.6,0.3-2.1,0.9c-0.5,0.6-0.8,1.4-0.8,2.5
		v6.5h-3.7V16.9h3.6v1.5c0.5-0.5,1.1-1,1.8-1.2s1.5-0.4,2.3-0.4c0.9,0,1.7,0.2,2.5,0.5c0.7,0.4,1.3,0.9,1.8,1.6
		c0.5-0.7,1.2-1.2,2-1.6c0.8-0.4,1.7-0.6,2.7-0.6C145.2,16.7,146.5,17.2,147.5,18.1z"/>
	<path class="st1" d="M159.3,13h7.6c1.8,0,3.4,0.3,4.8,1s2.5,1.7,3.3,2.9c0.8,1.3,1.2,2.7,1.2,4.4c0,1.7-0.4,3.2-1.2,4.4
		c-0.8,1.3-1.9,2.2-3.3,2.9s-3,1-4.8,1h-7.6V13z M166.8,26.6c1.7,0,3-0.5,4-1.4c1-0.9,1.5-2.2,1.5-3.8c0-1.6-0.5-2.9-1.5-3.8
		c-1-0.9-2.3-1.4-4-1.4h-3.6v10.4H166.8z"/>
	<path class="st1" d="M191.5,24.4h-9.8c0.2,0.8,0.6,1.4,1.2,1.9s1.5,0.7,2.4,0.7c0.7,0,1.3-0.1,1.8-0.3c0.5-0.2,1-0.5,1.5-0.9l2,2.2
		c-1.2,1.4-3,2.1-5.3,2.1c-1.5,0-2.7-0.3-3.9-0.9c-1.1-0.6-2-1.4-2.6-2.4c-0.6-1-0.9-2.2-0.9-3.4c0-1.3,0.3-2.4,0.9-3.4
		c0.6-1,1.4-1.8,2.5-2.4c1-0.6,2.2-0.9,3.5-0.9c1.3,0,2.4,0.3,3.4,0.8c1,0.5,1.8,1.3,2.4,2.3c0.6,1,0.9,2.2,0.9,3.5
		C191.5,23.4,191.5,23.8,191.5,24.4z M182.7,20.2c-0.6,0.5-0.9,1.1-1.1,2h6.4c-0.1-0.8-0.5-1.5-1.1-2s-1.3-0.7-2.1-0.7
		C184,19.5,183.3,19.8,182.7,20.2z"/>
	<path class="st1" d="M214.4,18.1c1,1,1.4,2.4,1.4,4.3v7.4h-3.7V23c0-1-0.2-1.8-0.6-2.3c-0.4-0.5-1-0.8-1.8-0.8
		c-0.9,0-1.6,0.3-2.1,0.9c-0.5,0.6-0.8,1.4-0.8,2.5v6.5H203V23c0-2-0.8-3-2.4-3c-0.9,0-1.6,0.3-2.1,0.9c-0.5,0.6-0.8,1.4-0.8,2.5
		v6.5H194V16.9h3.6v1.5c0.5-0.5,1.1-1,1.8-1.2c0.7-0.3,1.5-0.4,2.3-0.4c0.9,0,1.7,0.2,2.5,0.5c0.7,0.4,1.3,0.9,1.8,1.6
		c0.5-0.7,1.2-1.2,2-1.6s1.7-0.6,2.7-0.6C212.2,16.7,213.5,17.2,214.4,18.1z"/>
	<path class="st1" d="M221.8,29.1c-1.1-0.6-1.9-1.4-2.5-2.4c-0.6-1-0.9-2.2-0.9-3.4s0.3-2.4,0.9-3.4c0.6-1,1.5-1.8,2.5-2.4
		c1.1-0.6,2.3-0.9,3.7-0.9c1.4,0,2.6,0.3,3.6,0.9c1.1,0.6,1.9,1.4,2.5,2.4c0.6,1,0.9,2.2,0.9,3.4s-0.3,2.4-0.9,3.4
		c-0.6,1-1.4,1.8-2.5,2.4c-1.1,0.6-2.3,0.9-3.6,0.9C224.1,30,222.9,29.7,221.8,29.1z M227.8,25.9c0.6-0.6,0.9-1.5,0.9-2.6
		s-0.3-2-0.9-2.6c-0.6-0.6-1.4-1-2.4-1s-1.8,0.3-2.4,1c-0.6,0.6-0.9,1.5-0.9,2.6s0.3,2,0.9,2.6c0.6,0.6,1.4,1,2.4,1
		S227.2,26.6,227.8,25.9z"/>
	<path class="st1" d="M236.3,29.6c-1-0.3-1.8-0.6-2.4-1l1.2-2.7c0.6,0.4,1.3,0.7,2.1,0.9c0.8,0.2,1.6,0.3,2.4,0.3
		c1.6,0,2.4-0.4,2.4-1.2c0-0.4-0.2-0.6-0.6-0.8c-0.4-0.2-1.1-0.3-2-0.4c-1.1-0.2-1.9-0.3-2.6-0.6c-0.7-0.2-1.3-0.6-1.8-1.1
		s-0.8-1.3-0.8-2.3c0-0.8,0.2-1.5,0.7-2.2s1.2-1.1,2.1-1.5c0.9-0.4,2-0.5,3.2-0.5c0.9,0,1.8,0.1,2.7,0.3c0.9,0.2,1.7,0.5,2.2,0.8
		l-1.2,2.7c-1.1-0.6-2.4-1-3.7-1c-0.8,0-1.4,0.1-1.8,0.3c-0.4,0.2-0.6,0.5-0.6,0.9c0,0.4,0.2,0.7,0.6,0.8c0.4,0.2,1.1,0.3,2.1,0.5
		c1.1,0.2,1.9,0.4,2.6,0.6s1.3,0.6,1.8,1.1s0.7,1.3,0.7,2.2c0,0.8-0.2,1.5-0.7,2.1c-0.5,0.6-1.2,1.1-2.1,1.5s-2,0.5-3.3,0.5
		C238.3,30,237.3,29.8,236.3,29.6z"/>
</g>
</svg>
