<?xml version="1.0" encoding="utf-8"?>
<!-- Generator: Adobe Illustrator 21.0.2, SVG Export Plug-In . SVG Version: 6.00 Build 0)  -->
<svg version="1.1" id="Layer_1" xmlns="http://www.w3.org/2000/svg" xmlns:xlink="http://www.w3.org/1999/xlink" x="0px" y="0px"
	 viewBox="0 0 64 64" style="enable-background:new 0 0 64 64;" xml:space="preserve">
<path d="M32,8C18.8,8,8,18.8,8,32s10.8,24,24,24s24-10.8,24-24S45.2,8,32,8z M32,12c2.1,0,4.1,0.3,6,0.9v11L26.8,12.7
	C28.5,12.2,30.2,12,32,12z M22.8,14.3l7.8,7.8H14.7C16.6,18.7,19.4,16,22.8,14.3z M42,14.7c3.3,1.9,5.9,4.8,7.7,8.1L42,30.5V14.7z
	 M12.9,26h11L12.7,37.2C12.3,35.5,12,33.8,12,32C12,29.9,12.3,27.9,12.9,26z M29.5,26h5l3.5,3.5v5L34.5,38h-5L26,34.5v-5L29.5,26z
	 M51.3,26.8c0.4,1.6,0.7,3.4,0.7,5.2c0,2.1-0.3,4.1-0.9,6h-11L51.3,26.8z M22,33.5v15.8c-3.3-1.9-5.9-4.8-7.7-8.1L22,33.5z M26,40.1
	l11.2,11.2C35.5,51.8,33.8,52,32,52c-2.1,0-4.1-0.3-6-0.9V40.1z M33.5,42h15.8c-1.9,3.3-4.7,6-8.1,7.8L33.5,42z"/>
</svg>
