<?xml version="1.0" encoding="utf-8"?>
<!-- Generator: Adobe Illustrator 21.0.2, SVG Export Plug-In . SVG Version: 6.00 Build 0)  -->
<svg version="1.1" id="Layer_1" xmlns="http://www.w3.org/2000/svg" xmlns:xlink="http://www.w3.org/1999/xlink" x="0px" y="0px"
	 viewBox="0 0 64 64" style="enable-background:new 0 0 64 64;" xml:space="preserve">
<path d="M30,2v4h4V2H30z M16,10l-6,14v26c0,4,2,4,6,4h10v-4H16c-1.7,0-2-0.3-2-2V28h12v-4H14l4-10h8v-4H16z M30,10v4h4v-4H30z
	 M38,10v4h8l4,10H38v4h12v20c0,1.7-0.3,2-2,2H38v4h10c4,0,6,0,6-4V24l-6-14H38z M30,18v4h4v-4H30z M30,26v4h4v-4H30z M30,34v4h4v-4
	H30z M30,42v4h4v-4H30z M30,50v4h4v-4H30z M30,58v4h4v-4H30z"/>
</svg>
