<?xml version="1.0" encoding="utf-8"?>
<!-- Generator: Adobe Illustrator 21.0.2, SVG Export Plug-In . SVG Version: 6.00 Build 0)  -->
<svg version="1.1" id="Layer_1" xmlns="http://www.w3.org/2000/svg" xmlns:xlink="http://www.w3.org/1999/xlink" x="0px" y="0px"
	 viewBox="0 0 64 64" style="enable-background:new 0 0 64 64;" xml:space="preserve">
<path d="M32,5.1L14.2,22.9H4v12h2.5l6,20h24.1l-1.6-4H15.5l-6-20H8v-4h48v4h-1.5l-1.4,4.5l3.8,1.1l0.5-1.7H60v-12H49.8L32,5.1z
	 M32,10.8l12.1,12.1H19.9L32,10.8z M30.6,31.8l1.5,3.8l9.4,23.4l4.6-6.6l6.1,5.2l6.7-7.5l-6.4-5.3L58,40L30.6,31.8z M37.4,38
	L50,41.8L46.3,45l6.8,5.6l-1.3,1.5l-6.4-5.5l-2.9,4.2L37.4,38z"/>
</svg>
