<?xml version="1.0" encoding="utf-8"?>
<!-- Generator: Adobe Illustrator 21.0.2, SVG Export Plug-In . SVG Version: 6.00 Build 0)  -->
<svg version="1.1" id="Layer_1" xmlns="http://www.w3.org/2000/svg" xmlns:xlink="http://www.w3.org/1999/xlink" x="0px" y="0px"
	 viewBox="0 0 64 64" style="enable-background:new 0 0 64 64;" xml:space="preserve">
<path d="M60.8,3.3L53,8.4l-12.5,8.2l0.8-1.3l3.3-5.9l-5.9,3.1c0,0-5.5,2.9-11.9,6.8S12.9,27.8,8.9,31.7c-6.5,6.5-6.5,17.1,0,23.4H9
	c6.5,6.5,17,6.5,23.3,0v-0.1c3.4-3.4,7.6-9.6,11.1-15.1c3.5-5.5,6.1-10.2,6.1-10.2l2.8-4.9L47,26.9l-1.6,0.6l10.4-16.3L60.8,3.3z
	 M47.3,16.9l-8.8,13.7l-3.4,5.3l5.8-2.4l1.9-0.8c-1.1,1.8-1.3,2.3-3,5c-3.4,5.4-7.6,11.7-10.4,14.5c-4.8,5-12.7,5.1-17.8,0h-0.1
	c-5-4.8-5-12.7,0.1-17.8c3.4-3.3,10.7-8,17-11.8c3.1-1.8,3.5-2.1,5.6-3.3l-1.2,2.3l-3.9,7.1l6.7-4.4L47.3,16.9z M20.1,36.1
	c-4.4,0-8,3.6-8,8s3.6,8,8,8s8-3.6,8-8S24.5,36.1,20.1,36.1z M20.1,40.1c2.4,0,4,1.6,4,4s-1.6,4-4,4s-4-1.6-4-4S17.7,40.1,20.1,40.1
	z"/>
</svg>
