<?xml version="1.0" encoding="utf-8"?>
<!-- Generator: Adobe Illustrator 21.0.2, SVG Export Plug-In . SVG Version: 6.00 Build 0)  -->
<svg version="1.1" id="Layer_1" xmlns="http://www.w3.org/2000/svg" xmlns:xlink="http://www.w3.org/1999/xlink" x="0px" y="0px"
	 viewBox="0 0 64 64" style="enable-background:new 0 0 64 64;" xml:space="preserve">
<path d="M8,6v27.2l-4.6,4.6C2.5,38.7,2,39.9,2,41.2C2,43.8,4.2,46,6.8,46H24l4-4H6.8C6.4,42,6,41.6,6,41.2c0-0.2,0.1-0.4,0.2-0.6
	l4.6-4.6H34l2-2c-0.1-0.3-0.1-1.1,0-2H12V10h36v9.3c1.1-0.2,2.4-0.2,4,0V6H8z M51.1,21.9c-3-0.1-6,1-8.3,3.3c-2.4,2.4-3.3,5.7-3,8.9
	L28.1,45.7c-1.3,1.3-2.1,3.2-2.1,5.1c0,1.9,0.8,3.7,2.1,5.1c1.3,1.3,3.2,2.1,5.1,2.1s3.7-0.8,5.1-2.1l11.6-11.6
	c3.2,0.3,6.5-0.6,8.9-3c3.5-3.5,4.2-8.7,2.2-12.9c-0.5-1-1.7-1.4-2.7-0.9c-0.2,0.1-0.4,0.2-0.6,0.4L53,32.6c-0.4,0.4-1.1,0.4-1.6,0
	c0,0,0,0,0,0c-0.4-0.4-0.4-1.1,0-1.6l4.8-4.8c0.8-0.8,0.8-2,0-2.8c-0.2-0.2-0.3-0.3-0.6-0.4c-1.1-0.5-2.2-0.8-3.3-1
	C51.9,21.9,51.5,21.9,51.1,21.9z M49.6,26c0.4-0.1,0.7,0.2,1,0.1l-2,2c-1.9,1.9-1.9,4.9-0.2,6.9c0.1,0.1,0.1,0.2,0.2,0.3
	c0,0,0,0,0,0v0c0,0,0,0,0,0c2,2,5.2,2,7.2,0l2-2c0,1.8-0.5,3.6-1.9,5c-1.8,1.8-4.3,2.5-6.6,2c-0.7-0.1-1.3,0.1-1.8,0.6L35.4,53.1
	c0,0,0,0,0,0C34.8,53.7,34,54,33.2,54c-0.8,0-1.7-0.3-2.3-0.9c-0.6-0.6-0.9-1.4-0.9-2.3c0-0.8,0.3-1.7,0.9-2.3L43,36.5
	c0.5-0.5,0.7-1.1,0.6-1.8c-0.5-2.3,0.2-4.8,2-6.6C46.7,26.9,48.1,26.2,49.6,26z"/>
</svg>
