<?xml version="1.0" encoding="utf-8"?>
<!-- Generator: Adobe Illustrator 21.0.2, SVG Export Plug-In . SVG Version: 6.00 Build 0)  -->
<svg version="1.1" id="Layer_1" xmlns="http://www.w3.org/2000/svg" xmlns:xlink="http://www.w3.org/1999/xlink" x="0px" y="0px"
	 viewBox="0 0 64 64" style="enable-background:new 0 0 64 64;" xml:space="preserve">
<path d="M54.6,6.6l-5.3,5.3l-0.9-0.9C46.4,9,43.9,8,41.3,8s-5.1,1-7.1,2.9l-1.4,1.4L31,14.1l-1.6-1.6l-2.9,2.9l5.6,5.6l-5.6,5.6
	l2.9,2.9l5.6-5.6l5.1,5.1l-5.6,5.6l2.9,2.9l5.6-5.6l5.6,5.6l2.9-2.9L49.9,33l3.2-3.3c3.9-3.9,3.9-10.2,0-14.1l-0.9-0.9l5.3-5.3
	L54.6,6.6z M41.3,12c1.5,0,3.1,0.6,4.3,1.8l4.7,4.7c2.4,2.4,2.4,6.1,0,8.5l-0.5,0.4L47,30.1L33.9,17l3.2-3.3
	C38.2,12.6,39.8,12,41.3,12z M15.4,26.6l-2.9,2.9l1.6,1.6l-3.2,3.3C7,38.1,7,44.5,10.9,48.4l0.9,0.9l-5.3,5.3l2.9,2.9l5.3-5.3
	l0.9,0.9c3.9,3.9,10.2,3.9,14.1,0l3.3-3.2l1.6,1.6l2.9-2.9L15.4,26.6z M17,33.9L30.1,47l-3.2,3.3c-2.4,2.4-6.1,2.4-8.5,0L18,49.8
	l-4.3-4.2c-2.4-2.4-2.4-6.1,0-8.5L17,33.9z"/>
</svg>
