<?xml version="1.0" encoding="utf-8"?>
<!-- Generator: Adobe Illustrator 21.0.2, SVG Export Plug-In . SVG Version: 6.00 Build 0)  -->
<svg version="1.1" id="Layer_1" xmlns="http://www.w3.org/2000/svg" xmlns:xlink="http://www.w3.org/1999/xlink" x="0px" y="0px"
	 viewBox="0 0 64 64" style="enable-background:new 0 0 64 64;" xml:space="preserve">
<path d="M10,12c-1.1,0-2,0.9-2,2s0.9,2,2,2h4.4l1.5,6h34.4l-3.8,14H26v4h18h2.5c1.8,0,3.4-1.2,3.9-2.9L55.5,18H19l-0.7-3
	c-0.4-1.8-2-3-3.9-3H10z M44,40c-3.3,0-6,2.7-6,6s2.7,6,6,6s6-2.7,6-6S47.3,40,44,40z M26,40c-3.3,0-6,2.7-6,6s2.7,6,6,6s6-2.7,6-6
	S29.3,40,26,40z M12,26v4h16v-4H12z M12,34v4h10v-4H12z M26,44c1.1,0,2,0.9,2,2s-0.9,2-2,2s-2-0.9-2-2S24.9,44,26,44z M44,44
	c1.1,0,2,0.9,2,2s-0.9,2-2,2s-2-0.9-2-2S42.9,44,44,44z"/>
</svg>
