<?xml version="1.0" encoding="utf-8"?>
<!-- Generator: Adobe Illustrator 21.0.2, SVG Export Plug-In . SVG Version: 6.00 Build 0)  -->
<svg version="1.1" id="Layer_1" xmlns="http://www.w3.org/2000/svg" xmlns:xlink="http://www.w3.org/1999/xlink" x="0px" y="0px"
	 viewBox="0 0 64 64" style="enable-background:new 0 0 64 64;" xml:space="preserve">
<path d="M6,12v40h52V12H6z M10,16h44v27.1L38.4,27.6L37,26.2l-1.4,1.4L31,32.1l-7.6-7.6L22,23.2l-1.4,1.4L10,35.1V16z M45,18
	c-2.7,0-5,2.3-5,5c0,2.7,2.3,5,5,5s5-2.3,5-5C50,20.3,47.7,18,45,18z M45,22c0.6,0,1,0.4,1,1c0,0.6-0.4,1-1,1s-1-0.4-1-1
	C44,22.4,44.4,22,45,22z M22,28.9l6.1,6.1l-13,13H10v-7.1L22,28.9z M37,31.9L53.1,48H20.9L37,31.9z"/>
</svg>
