<?xml version="1.0" encoding="utf-8"?>
<!-- Generator: Adobe Illustrator 21.0.2, SVG Export Plug-In . SVG Version: 6.00 Build 0)  -->
<svg version="1.1" id="Layer_1" xmlns="http://www.w3.org/2000/svg" xmlns:xlink="http://www.w3.org/1999/xlink" x="0px" y="0px"
	 viewBox="0 0 64 64" style="enable-background:new 0 0 64 64;" xml:space="preserve">
<path d="M43,8L33,28h4L47,8H43z M33,10c-1.7,0-3,1.3-3,3s1.3,3,3,3s3-1.3,3-3S34.7,10,33,10z M47,20c-1.7,0-3,1.3-3,3s1.3,3,3,3
	s3-1.3,3-3S48.7,20,47,20z M22.9,32C16.5,32,8,35.5,8,35.5l1.5,3.7c0,0,8.6-3.2,13.4-3.2c1.9,0,5.2,1.2,7.9,2.5
	c1.3,0.7,2.6,1.4,3.5,2c0.4,0.3,0.8,0.6,1.1,0.8c0.1,0,0.1,0.1,0.1,0.1c0.1,0.1,0.1,0.1,0.2,0.2l0.1,0.2c0.3,0.5,0.2,1.1-0.1,1.5
	c-0.4,0.6-1.1,0.8-1.7,0.6l-8.7-4.1l-1.7,3.6l9,4.3l0.1,0c2.3,0.8,4.9,0,6.3-2v0c0.8-1.1,1.1-2.5,0.9-3.8l9.5-1.6h0
	c1.1-0.2,2.1,0.4,2.4,1.4c0.4,1.1-0.1,2.2-1.2,2.7c-2.9,1.3-7.7,3.2-11.9,4.8c-2.1,0.8-4.1,1.5-5.7,2c-0.8,0.3-1.4,0.4-1.9,0.6
	C30.7,52,30.3,52,30.5,52c0.1,0-0.7-0.2-1.6-0.7c-0.9-0.5-2.1-1.2-3.3-2c-1.2-0.8-2.4-1.5-3.6-2.1S19.8,46,18.4,46
	c-3.3,0-6.2,1.3-6.2,1.3l1.5,3.7c0,0,2.5-1,4.7-1c-0.1,0,0.8,0.2,1.7,0.7c1,0.5,2.1,1.2,3.3,2s2.4,1.5,3.5,2.1
	C28,55.4,29,56,30.5,56c0.7,0,1.1-0.1,1.7-0.3c0.6-0.2,1.3-0.4,2.2-0.6c1.6-0.5,3.7-1.3,5.8-2.1c4.3-1.6,9.1-3.6,12.1-4.9
	c2.9-1.3,4.3-4.6,3.4-7.6c-1-2.9-3.9-4.6-6.8-4.1h0l-10.9,1.8c0,0-0.1-0.1-0.1-0.1c0,0-0.1-0.1-0.1-0.1L37,37.6l0,0
	c-0.2-0.1-0.3-0.2-0.5-0.4c-1-0.7-2.4-1.5-3.9-2.2C29.7,33.5,26.2,32,22.9,32z"/>
</svg>
