<?xml version="1.0" encoding="utf-8"?>
<!-- Generator: Adobe Illustrator 21.0.2, SVG Export Plug-In . SVG Version: 6.00 Build 0)  -->
<svg version="1.1" id="Layer_1" xmlns="http://www.w3.org/2000/svg" xmlns:xlink="http://www.w3.org/1999/xlink" x="0px" y="0px"
	 viewBox="0 0 64 64" style="enable-background:new 0 0 64 64;" xml:space="preserve">
<path d="M32,8C18.8,8,8,18.8,8,32s10.8,24,24,24s24-10.8,24-24S45.2,8,32,8z M32,12c0.4,0,0.9,0.2,1.6,1.1s1.5,2.2,2.1,4.1
	c0.3,0.9,0.6,1.8,0.9,2.9h-9.3c0.3-1,0.6-2,0.9-2.9c0.7-1.8,1.4-3.2,2.1-4.1S31.6,12,32,12z M25.6,13c-0.4,0.8-0.8,1.8-1.2,2.8
	C24,17,23.6,18.5,23.3,20H16C18.4,16.8,21.7,14.3,25.6,13z M38.4,13c3.9,1.3,7.2,3.8,9.6,7h-7.3c-0.3-1.5-0.7-3-1.2-4.3
	C39.2,14.8,38.8,13.8,38.4,13z M13.6,24h8.9c-0.3,1.9-0.4,3.9-0.5,6h-9.9C12.3,27.9,12.8,25.9,13.6,24z M26.6,24h10.8
	c0.3,1.9,0.5,3.9,0.6,6H26.1C26.1,27.9,26.3,25.9,26.6,24z M41.4,24h8.9c0.8,1.9,1.3,3.9,1.5,6h-9.9C41.9,27.9,41.7,25.9,41.4,24z
	 M12.1,34h9.9c0.1,2.1,0.2,4.1,0.5,6h-8.9C12.8,38.1,12.3,36.1,12.1,34z M26.1,34h11.9c-0.1,2.1-0.3,4.1-0.6,6H26.6
	C26.3,38.1,26.1,36.1,26.1,34z M41.9,34h9.9c-0.2,2.1-0.7,4.1-1.5,6h-8.9C41.7,38.1,41.9,36.1,41.9,34z M16,44h7.3
	c0.3,1.5,0.7,3,1.2,4.3c0.4,1,0.7,1.9,1.2,2.8C21.7,49.7,18.4,47.2,16,44z M27.4,44h9.3c-0.3,1-0.6,2-0.9,2.9
	c-0.7,1.8-1.4,3.2-2.1,4.1S32.4,52,32,52c-0.4,0-0.9-0.2-1.6-1.1s-1.5-2.2-2.1-4.1C27.9,46,27.6,45,27.4,44z M40.8,44H48
	c-2.4,3.2-5.7,5.7-9.6,7c0.4-0.8,0.8-1.8,1.2-2.8C40,47,40.4,45.5,40.8,44z"/>
</svg>
