<?xml version="1.0" encoding="utf-8"?>
<!-- Generator: Adobe Illustrator 21.0.2, SVG Export Plug-In . SVG Version: 6.00 Build 0)  -->
<svg version="1.1" id="Layer_1" xmlns="http://www.w3.org/2000/svg" xmlns:xlink="http://www.w3.org/1999/xlink" x="0px" y="0px"
	 viewBox="0 0 64 64" style="enable-background:new 0 0 64 64;" xml:space="preserve">
<path d="M32,10.9l-0.9,0.5l-27,14l-3.4,1.8L4,28.8v16.9c-1.2,0.7-2,2-2,3.4c0,2.2,1.8,4,4,4s4-1.8,4-4c0-1.5-0.8-2.7-2-3.4V30.9
	l4,2.1v10.2c0,0.9,0.4,1.7,0.9,2.2s1,0.8,1.6,1.1c1.2,0.6,2.6,1.1,4.3,1.4c3.5,0.8,8.1,1.3,13.2,1.3s9.7-0.5,13.2-1.3
	c1.7-0.4,3.1-0.8,4.3-1.4c0.6-0.3,1.2-0.6,1.6-1.1S52,44,52,43.1V32.9l7.9-4.1l3.4-1.8l-3.4-1.8l-27-14L32,10.9z M32,15.4l22.6,11.8
	l-3.6,1.8c-0.5-0.5-1-0.8-1.6-1.1c-1.2-0.6-2.6-1.1-4.3-1.4c-3.5-0.8-8.1-1.3-13.2-1.3s-9.7,0.5-13.2,1.3c-1.7,0.4-3.1,0.8-4.3,1.4
	c-0.6,0.3-1.1,0.6-1.6,1.1l-3.6-1.8L32,15.4z M32,29.1c4.9,0,9.3,0.4,12.3,1.1c1.5,0.3,2.7,0.7,3.4,1.1c0.2,0.1,0.2,0.2,0.3,0.3v7.6
	c-0.8-0.3-1.8-0.6-2.8-0.8c-3.5-0.8-8.1-1.3-13.2-1.3s-9.7,0.5-13.2,1.3c-1.1,0.2-2,0.5-2.8,0.8v-7.6c0.1-0.1,0.1-0.1,0.3-0.3
	c0.6-0.3,1.9-0.7,3.4-1.1C22.7,29.6,27.1,29.1,32,29.1z M32,41.1c4.9,0,9.3,0.4,12.3,1.1c1.3,0.3,2.1,0.6,2.8,0.9
	c-0.7,0.3-1.5,0.6-2.8,0.9c-3,0.7-7.5,1.1-12.3,1.1s-9.3-0.4-12.3-1.1c-1.3-0.3-2.1-0.6-2.8-0.9c0.7-0.3,1.5-0.6,2.8-0.9
	C22.7,41.6,27.1,41.1,32,41.1z"/>
</svg>
