<?xml version="1.0" encoding="utf-8"?>
<!-- Generator: Adobe Illustrator 21.0.2, SVG Export Plug-In . SVG Version: 6.00 Build 0)  -->
<svg version="1.1" id="Layer_1" xmlns="http://www.w3.org/2000/svg" xmlns:xlink="http://www.w3.org/1999/xlink" x="0px" y="0px"
	 viewBox="0 0 64 64" style="enable-background:new 0 0 64 64;" xml:space="preserve">
<path d="M31.1,8l-0.6,0.6l-9.8,9.9l-2.2,2.2l-9.9,9.8L8,31.1v20.5l1.8,0.2l43.8,4L56,56l-0.2-2.4l-4-43.8L51.6,8H31.1z M35.1,12H45
	l-6.5,6.5L35.1,12z M31.3,13.4l3.2,6.2l-8.7-0.7L31.3,13.4z M48.3,14.4l2.6,28.9l-10.5-21L48.3,14.4z M22.6,22.6l10.8,0.9l-9.8,9.8
	L22.6,22.6z M37.3,25.4l12,24l-24-12L37.3,25.4z M18.9,25.9l0.7,8.7l-6.2-3.2L18.9,25.9z M12,35.1l6.5,3.3L12,45V35.1z M22.4,40.3
	l21,10.5l-29-2.6L22.4,40.3z"/>
</svg>
