<?xml version="1.0" encoding="utf-8"?>
<!-- Generator: Adobe Illustrator 21.0.2, SVG Export Plug-In . SVG Version: 6.00 Build 0)  -->
<svg version="1.1" id="Layer_1" xmlns="http://www.w3.org/2000/svg" xmlns:xlink="http://www.w3.org/1999/xlink" x="0px" y="0px"
	 viewBox="0 0 64 64" style="enable-background:new 0 0 64 64;" xml:space="preserve">
<path d="M32,8C18.8,8,8,18.8,8,32s10.8,24,24,24s24-10.8,24-24S45.2,8,32,8z M32,12c0.7,0,1.3,0.1,2,0.1v6.1c-0.7-0.1-1.3-0.2-2-0.2
	s-1.3,0.1-2,0.2v-6.1C30.7,12.1,31.3,12,32,12z M26,12.9v6.5c-2.9,1.4-5.2,3.7-6.6,6.6h-6.4C14.9,19.8,19.8,14.8,26,12.9z M38,12.9
	c6.2,2,11.2,6.9,13.1,13.1h-6.5c-1.4-2.9-3.7-5.2-6.6-6.6V12.9z M32,22c5.5,0,10,4.5,10,10s-4.5,10-10,10s-10-4.5-10-10
	S26.5,22,32,22z M12.1,30h6C18,30.6,18,31.3,18,32c0,0.7,0.1,1.3,0.2,2h-6.1c-0.1-0.7-0.1-1.3-0.1-2C12,31.3,12.1,30.7,12.1,30z
	 M45.8,30h6.1c0.1,0.7,0.1,1.3,0.1,2c0,0.7-0.1,1.3-0.1,2h-6.1c0.1-0.7,0.2-1.3,0.2-2S45.9,30.7,45.8,30z M12.9,38h6.5
	c1.4,2.9,3.7,5.2,6.6,6.6v6.5C19.8,49.2,14.8,44.2,12.9,38z M44.6,38h6.5c-2,6.2-6.9,11.2-13.1,13.1v-6.5
	C40.9,43.2,43.2,40.9,44.6,38z M30,45.8c0.7,0.1,1.3,0.2,2,0.2s1.3-0.1,2-0.2v6.1c-0.7,0.1-1.3,0.1-2,0.1c-0.7,0-1.3-0.1-2-0.1V45.8
	z"/>
</svg>
