<?xml version="1.0" encoding="utf-8"?>
<!-- Generator: Adobe Illustrator 21.0.2, SVG Export Plug-In . SVG Version: 6.00 Build 0)  -->
<svg version="1.1" id="Layer_1" xmlns="http://www.w3.org/2000/svg" xmlns:xlink="http://www.w3.org/1999/xlink" x="0px" y="0px"
	 viewBox="0 0 64 64" style="enable-background:new 0 0 64 64;" xml:space="preserve">
<path d="M16,10c-3.3,0-6,2.7-6,6s2.7,6,6,6h32c3.3,0,6-2.7,6-6s-2.7-6-6-6H16z M16,14h32c1.1,0,2,0.9,2,2s-0.9,2-2,2H16
	c-1.1,0-2-0.9-2-2S14.9,14,16,14z M16,26c-3.3,0-6,2.7-6,6s2.7,6,6,6h32c3.3,0,6-2.7,6-6s-2.7-6-6-6H16z M16,30h32c1.1,0,2,0.9,2,2
	c0,1.1-0.9,2-2,2H16c-1.1,0-2-0.9-2-2C14,30.9,14.9,30,16,30z M16,42c-3.3,0-6,2.7-6,6s2.7,6,6,6h32c3.3,0,6-2.7,6-6s-2.7-6-6-6H16z
	 M16,46h32c1.1,0,2,0.9,2,2s-0.9,2-2,2H16c-1.1,0-2-0.9-2-2S14.9,46,16,46z"/>
</svg>
