<?xml version="1.0" encoding="utf-8"?>
<!-- Generator: Adobe Illustrator 21.0.2, SVG Export Plug-In . SVG Version: 6.00 Build 0)  -->
<svg version="1.1" id="Layer_1" xmlns="http://www.w3.org/2000/svg" xmlns:xlink="http://www.w3.org/1999/xlink" x="0px" y="0px"
	 viewBox="0 0 64 64" style="enable-background:new 0 0 64 64;" xml:space="preserve">
<path d="M8,8v2v22h18v22.1l7.9-7.8l3.9,8.5l3.6-1.7l-3.8-8.3l10.6-0.6l-3.4-3.2L35.1,32H56V8H8z M12,12h40v16H30.8L26,23.5V28H12V12
	z M16,18v4h6v-4H16z M26,18v4h8v-4H26z M38,18v4h10v-4H38z M30,32.7l8.7,8.1l-5.2,0.3L30,44.6V32.7z"/>
</svg>
