<?xml version="1.0" encoding="utf-8"?>
<!-- Generator: Adobe Illustrator 21.0.2, SVG Export Plug-In . SVG Version: 6.00 Build 0)  -->
<svg version="1.1" id="Layer_1" xmlns="http://www.w3.org/2000/svg" xmlns:xlink="http://www.w3.org/1999/xlink" x="0px" y="0px"
	 viewBox="0 0 64 64" style="enable-background:new 0 0 64 64;" xml:space="preserve">
<path d="M8,10v44h48V10H8z M12,14h40v36H12V14z M16,20v4h4v-4H16z M22,20v4h8v-4H22z M34,20v4h4v-4H34z M40,20v4h8v-4H40z M16,30v4
	h4v-4H16z M22,30v4h8v-4H22z M34,30v4h4v-4H34z M40,30v4h8v-4H40z M16,40v4h4v-4H16z M22,40v4h8v-4H22z M34,40v4h4v-4H34z M40,40v4
	h8v-4H40z"/>
</svg>
