<?xml version="1.0" encoding="utf-8"?>
<!-- Generator: Adobe Illustrator 21.0.2, SVG Export Plug-In . SVG Version: 6.00 Build 0)  -->
<svg version="1.1" id="Layer_1" xmlns="http://www.w3.org/2000/svg" xmlns:xlink="http://www.w3.org/1999/xlink" x="0px" y="0px"
	 viewBox="0 0 64 64" style="enable-background:new 0 0 64 64;" xml:space="preserve">
<path d="M4,14v14h2c2.4,0,4,1.6,4,4s-1.6,4-4,4H4v14h56V36h-2c-2.4,0-4-1.6-4-4s1.6-4,4-4h2V14H4z M8,18h48v6.4
	c-3.4,0.9-6,3.9-6,7.6s2.6,6.7,6,7.6V46H8v-6.4c3.4-0.9,6-3.9,6-7.6s-2.6-6.7-6-7.6V18z M32,20.2L28.6,28L20,29l6.4,5.8l-1.8,8.4
	L32,39l7.4,4.2l-1.8-8.4L44,29l-8.6-1L32,20.2z M32,30.2l0.8,1.8l1.8,0.2l-1.4,1.2l0.4,1.8l-1.6-1l-1.6,1l0.4-1.8L29.4,32l1.8-0.2
	L32,30.2z"/>
</svg>
