<?xml version="1.0" encoding="utf-8"?>
<!-- Generator: Adobe Illustrator 21.0.2, SVG Export Plug-In . SVG Version: 6.00 Build 0)  -->
<svg version="1.1" id="Layer_1" xmlns="http://www.w3.org/2000/svg" xmlns:xlink="http://www.w3.org/1999/xlink" x="0px" y="0px"
	 viewBox="0 0 64 64" style="enable-background:new 0 0 64 64;" xml:space="preserve">
<path d="M10,10v12h4v-8h8v-4H10z M42,10v4h8v8h4V10H42z M30.5,20L30,21.3l-5.9,16L24,37.6V44h4v-4h8v4h4v-6.4l-0.1-0.3l-5.9-16
	L33.5,20H30.5z M32,27.4l3.1,8.6h-6.3L32,27.4z M10,42v12h12v-4h-8v-8H10z M50,42v8h-8v4h12V42H50z"/>
</svg>
