<?xml version="1.0" encoding="utf-8"?>
<!-- Generator: Adobe Illustrator 21.0.2, SVG Export Plug-In . SVG Version: 6.00 Build 0)  -->
<svg version="1.1" id="Layer_1" xmlns="http://www.w3.org/2000/svg" xmlns:xlink="http://www.w3.org/1999/xlink" x="0px" y="0px"
	 viewBox="0 0 64 64" style="enable-background:new 0 0 64 64;" xml:space="preserve">
<path d="M32,6C17.7,6,6,17.7,6,32s11.7,26,26,26s26-11.7,26-26S46.3,6,32,6z M29.8,10.1c0.1,0,0.2,0,0.3,0v22.7l0.6,0.6l15.6,15.5
	C42.3,52.1,37.4,54,32,54c-12.2,0-22-9.8-22-22C10,20.6,18.6,11.3,29.8,10.1z M34,10.1c10.6,1,18.9,9.3,19.9,19.9H34V10.1z M36.9,34
	h17c-0.4,4.6-2.1,8.8-4.9,12.1L36.9,34z"/>
</svg>
