<?xml version="1.0" encoding="utf-8"?>
<!-- Generator: Adobe Illustrator 21.0.2, SVG Export Plug-In . SVG Version: 6.00 Build 0)  -->
<svg version="1.1" id="Layer_1" xmlns="http://www.w3.org/2000/svg" xmlns:xlink="http://www.w3.org/1999/xlink" x="0px" y="0px"
	 viewBox="0 0 64 64" style="enable-background:new 0 0 64 64;" xml:space="preserve">
<path d="M32,6c-7.7,0-14,6.3-14,14c0,2.3,0.9,4.7,2.1,7.4c1.2,2.7,2.7,5.5,4.2,8.1c3,5.3,6.1,9.6,6.1,9.6l1.6,2.4l1.6-2.4
	c0,0,3.1-4.4,6.1-9.6c1.5-2.6,3-5.5,4.2-8.1c1.2-2.7,2.1-5.1,2.1-7.4C46,12.3,39.7,6,32,6z M32,10c5.5,0,10,4.5,10,10
	c0,1.1-0.6,3.3-1.7,5.8c-1.1,2.5-2.6,5.2-4.1,7.8c-2.1,3.7-3.2,5.3-4.3,6.8c-1-1.5-2.1-3.1-4.3-6.8c-1.5-2.5-3-5.3-4.1-7.8
	C22.6,23.3,22,21.1,22,20C22,14.5,26.5,10,32,10z M32,16c-2.2,0-4,1.8-4,4s1.8,4,4,4s4-1.8,4-4S34.2,16,32,16z M21.8,38.9
	C14.1,40.3,8,43.4,8,48c0,6.6,12.1,10,24,10s24-3.4,24-10c0-4.6-6.1-7.7-13.8-9.1l-2.4,3.7C47.3,43.7,52,46.2,52,48c0,2.4-8,6-20,6
	s-20-3.6-20-6c0-1.8,4.7-4.3,12.3-5.4L21.8,38.9z"/>
</svg>
