<?xml version="1.0" encoding="utf-8"?>
<!-- Generator: Adobe Illustrator 21.0.2, SVG Export Plug-In . SVG Version: 6.00 Build 0)  -->
<svg version="1.1" id="Layer_1" xmlns="http://www.w3.org/2000/svg" xmlns:xlink="http://www.w3.org/1999/xlink" x="0px" y="0px"
	 viewBox="0 0 64 64" style="enable-background:new 0 0 64 64;" xml:space="preserve">
<path d="M32,12c-7.5,0-14.2,0.8-18.3,1.4c-3.4,0.5-6.1,3-6.7,6.4C6.5,22.6,6,26.8,6,32s0.5,9.4,1.1,12.3c0.6,3.4,3.3,5.9,6.7,6.4
	C17.8,51.2,24.5,52,32,52s14.2-0.8,18.3-1.4c3.4-0.5,6.1-3,6.7-6.4c0.5-2.9,1.1-7,1.1-12.3s-0.5-9.4-1.1-12.3
	c-0.6-3.4-3.3-5.9-6.7-6.4C46.2,12.8,39.5,12,32,12z M32,16c7.3,0,13.8,0.7,17.7,1.3c1.7,0.3,3,1.5,3.3,3.2c0.5,2.6,1,6.6,1,11.5
	c0,4.9-0.5,8.9-1,11.5c-0.3,1.7-1.6,2.9-3.3,3.2C45.7,47.3,39.2,48,32,48s-13.8-0.7-17.7-1.3c-1.7-0.2-3-1.5-3.3-3.2
	c-0.5-2.6-1-6.5-1-11.5c0-5,0.5-8.9,1-11.5c0.3-1.7,1.6-2.9,3.3-3.2C18.2,16.7,24.7,16,32,16z M26,20.6v22.9l3-1.7l14-8l3-1.8
	l-3-1.8l-14-8L26,20.6z M30,27.4l7.9,4.6L30,36.6V27.4z"/>
</svg>
