<?xml version="1.0" encoding="utf-8"?>
<!-- Generator: Adobe Illustrator 21.0.2, SVG Export Plug-In . SVG Version: 6.00 Build 0)  -->
<svg version="1.1" id="Layer_1" xmlns="http://www.w3.org/2000/svg" xmlns:xlink="http://www.w3.org/1999/xlink" x="0px" y="0px"
	 viewBox="0 0 64 64" style="enable-background:new 0 0 64 64;" xml:space="preserve">
<path d="M43,10c-3.3,0-6.3,0.6-8.6,1.6c-1.2,0.5-2.2,1.2-3,2.1S30,15.7,30,17v8.8c-0.1-0.1-0.2-0.1-0.4-0.2C27.3,24.6,24.3,24,21,24
	s-6.3,0.6-8.6,1.6c-1.2,0.5-2.2,1.2-3,2.1S8,29.7,8,31v16c0,1.3,0.6,2.4,1.4,3.3s1.8,1.5,3,2.1c2.3,1.1,5.3,1.6,8.6,1.6
	s6.2-0.6,8.6-1.6c1.2-0.5,2.2-1.2,3-2.1s1.4-2,1.4-3.3v-0.9c0.2,0.1,0.3,0.2,0.4,0.3c2.3,1.1,5.3,1.6,8.6,1.6s6.2-0.6,8.6-1.6
	c1.2-0.5,2.2-1.2,3-2.1s1.4-2,1.4-3.3V17c0-1.3-0.6-2.4-1.4-3.3s-1.8-1.5-3-2.1C49.3,10.6,46.3,10,43,10z M43,14
	c2.8,0,5.3,0.6,6.9,1.3c0.8,0.4,1.4,0.8,1.8,1.1S52,16.9,52,17s0,0.2-0.3,0.6s-0.9,0.8-1.8,1.1C48.3,19.4,45.8,20,43,20
	s-5.3-0.6-6.9-1.3c-0.8-0.4-1.4-0.8-1.8-1.1S34,17.1,34,17s0-0.2,0.3-0.6s0.9-0.8,1.8-1.1C37.7,14.6,40.2,14,43,14z M34,22.2
	c0.1,0.1,0.2,0.1,0.4,0.2c2.3,1.1,5.3,1.6,8.6,1.6s6.3-0.6,8.6-1.6c0.1-0.1,0.3-0.1,0.4-0.2V25c0,0.1,0,0.3-0.3,0.6
	s-0.9,0.8-1.8,1.1C48.3,27.5,45.8,28,43,28s-5.3-0.5-6.9-1.3c-0.8-0.4-1.4-0.8-1.8-1.1S34,25.1,34,25V22.2z M21,28
	c2.8,0,5.3,0.6,6.9,1.3c0.8,0.4,1.4,0.8,1.8,1.1S30,30.9,30,31s0,0.2-0.3,0.6s-0.9,0.8-1.8,1.1C26.3,33.4,23.8,34,21,34
	s-5.3-0.6-6.9-1.3c-0.8-0.4-1.4-0.8-1.8-1.1S12,31.1,12,31s0-0.2,0.3-0.6s0.9-0.8,1.8-1.1C15.7,28.6,18.2,28,21,28z M34,30.1
	c0.2,0.1,0.3,0.2,0.4,0.3c2.3,1.1,5.3,1.6,8.6,1.6s6.2-0.6,8.6-1.6c0.2-0.1,0.3-0.2,0.4-0.3V33c0,0.1,0,0.3-0.3,0.6
	s-0.9,0.8-1.8,1.1C48.3,35.5,45.8,36,43,36s-5.3-0.5-6.9-1.3c-0.8-0.4-1.4-0.8-1.8-1.1S34,33.1,34,33V30.1z M12,36.2
	c0.1,0.1,0.2,0.1,0.4,0.2c2.3,1.1,5.3,1.6,8.6,1.6s6.3-0.6,8.6-1.6c0.1-0.1,0.3-0.1,0.4-0.2V39c0,0.1,0,0.3-0.3,0.6
	s-0.9,0.8-1.8,1.1C26.3,41.5,23.8,42,21,42s-5.3-0.5-6.9-1.3c-0.8-0.4-1.4-0.8-1.8-1.1S12,39.1,12,39V36.2z M34,38.1
	c0.2,0.1,0.3,0.2,0.4,0.3c2.3,1.1,5.3,1.6,8.6,1.6s6.2-0.6,8.6-1.6c0.2-0.1,0.3-0.2,0.4-0.3V41c0,0.1,0,0.3-0.3,0.6
	s-0.9,0.8-1.8,1.1C48.3,43.5,45.8,44,43,44s-5.3-0.5-6.9-1.3c-0.8-0.4-1.4-0.8-1.8-1.1S34,41.1,34,41V38.1z M12,44.1
	c0.2,0.1,0.3,0.2,0.4,0.3c2.3,1.1,5.3,1.6,8.6,1.6s6.2-0.6,8.6-1.6c0.2-0.1,0.3-0.2,0.4-0.3V47c0,0.1,0,0.3-0.3,0.6
	s-0.9,0.8-1.8,1.1C26.3,49.5,23.8,50,21,50s-5.3-0.5-6.9-1.3c-0.8-0.4-1.4-0.8-1.8-1.1S12,47.1,12,47V44.1z"/>
</svg>
