<?xml version="1.0" encoding="utf-8"?>
<!-- Generator: Adobe Illustrator 21.0.2, SVG Export Plug-In . SVG Version: 6.00 Build 0)  -->
<svg version="1.1" id="Layer_1" xmlns="http://www.w3.org/2000/svg" xmlns:xlink="http://www.w3.org/1999/xlink" x="0px" y="0px"
	 viewBox="0 0 64 64" style="enable-background:new 0 0 64 64;" xml:space="preserve">
<path d="M22,8c-3.3,0-6,2.7-6,6v30H8v6c0,3.3,2.7,6,6,6h28c3.3,0,6-2.7,6-6V22h8v-8c0-3.3-2.7-6-6-6H22z M22,12h22.4
	c-0.2,0.6-0.4,1.3-0.4,2v36c0,1.1-0.9,2-2,2c-1.2,0-2-0.8-2-2v-6H20V14C20,12.9,20.9,12,22,12z M50,12c1.2,0,2,0.8,2,2v4h-4v-4
	C48,12.8,48.8,12,50,12z M24,18v4h16v-4H24z M24,26v4h16v-4H24z M24,34v4h10v-4H24z M12,48h24v2c0,0.8,0.6,1.3,0.8,2H14
	c-1.2,0-2-0.8-2-2V48z"/>
</svg>
