<?xml version="1.0" encoding="utf-8"?>
<!-- Generator: Adobe Illustrator 21.0.2, SVG Export Plug-In . SVG Version: 6.00 Build 0)  -->
<svg version="1.1" id="Layer_1" xmlns="http://www.w3.org/2000/svg" xmlns:xlink="http://www.w3.org/1999/xlink" x="0px" y="0px"
	 viewBox="0 0 64 64" style="enable-background:new 0 0 64 64;" xml:space="preserve">
<path d="M38,6c-11,0-20,9-20,20c0,4.8,1.7,9.2,4.5,12.6L6.6,54.6l2.8,2.8l15.9-15.9C28.8,44.3,33.2,46,38,46c11,0,20-9,20-20
	S49,6,38,6z M38,10c8.9,0,16,7.1,16,16s-7.1,16-16,16s-16-7.1-16-16S29.1,10,38,10z M30,24c-1.1,0-2,0.9-2,2s0.9,2,2,2s2-0.9,2-2
	S31.1,24,30,24z M38,24c-1.1,0-2,0.9-2,2s0.9,2,2,2s2-0.9,2-2S39.1,24,38,24z M46,24c-1.1,0-2,0.9-2,2s0.9,2,2,2s2-0.9,2-2
	S47.1,24,46,24z"/>
</svg>
