<?xml version="1.0" encoding="utf-8"?>
<!-- Generator: Adobe Illustrator 21.0.2, SVG Export Plug-In . SVG Version: 6.00 Build 0)  -->
<svg version="1.1" id="Layer_1" xmlns="http://www.w3.org/2000/svg" xmlns:xlink="http://www.w3.org/1999/xlink" x="0px" y="0px"
	 viewBox="0 0 64 64" style="enable-background:new 0 0 64 64;" xml:space="preserve">
<path d="M32,8C18.8,8,8,18.8,8,32s10.8,24,24,24s24-10.8,24-24S45.2,8,32,8z M32,12c11.1,0,20,8.9,20,20s-8.9,20-20,20
	s-20-8.9-20-20S20.9,12,32,12z M31.4,16c-3.9,0.1-7.7,1.7-10.7,4.7c-6.2,6.2-6.2,16.4,0,22.6l2.8-2.8C21.2,38.2,20,35.2,20,32
	s1.2-6.2,3.5-8.5c3.1-3.1,7.6-4.1,11.5-3.1l3.2-3.2C36.1,16.4,33.7,15.9,31.4,16z M41.5,19.6L33,28.1C32.7,28,32.3,28,32,28
	c-2.2,0-4,1.8-4,4s1.8,4,4,4c2.2,0,4-1.8,4-4c0-0.3,0-0.7-0.1-1l8.5-8.5L41.5,19.6z M46.7,25.8l-3.1,3.1c0.3,1,0.4,2,0.4,3.1
	c0,3.2-1.2,6.2-3.5,8.5l2.8,2.8C48.1,38.6,49.2,31.6,46.7,25.8z"/>
</svg>
