<?xml version="1.0" encoding="utf-8"?>
<!-- Generator: Adobe Illustrator 21.0.2, SVG Export Plug-In . SVG Version: 6.00 Build 0)  -->
<svg version="1.1" id="Layer_1" xmlns="http://www.w3.org/2000/svg" xmlns:xlink="http://www.w3.org/1999/xlink" x="0px" y="0px"
	 viewBox="0 0 64 64" style="enable-background:new 0 0 64 64;" xml:space="preserve">
<path d="M45.7,7.7L33.4,30H58L45.7,7.7z M45.7,16l5.5,10H40.2L45.7,16z M19,32c-6.6,0-12,5.4-12,12s5.4,12,12,12s12-5.4,12-12
	S25.6,32,19,32z M35,34v22h22V34H35z M19,36c4.4,0,8,3.6,8,8s-3.6,8-8,8s-8-3.6-8-8S14.6,36,19,36z M39,38h14v14H39V38z"/>
</svg>
