<?xml version="1.0" encoding="utf-8"?>
<!-- Generator: Adobe Illustrator 21.0.2, SVG Export Plug-In . SVG Version: 6.00 Build 0)  -->
<svg version="1.1" id="Layer_1" xmlns="http://www.w3.org/2000/svg" xmlns:xlink="http://www.w3.org/1999/xlink" x="0px" y="0px"
	 viewBox="0 0 64 64" style="enable-background:new 0 0 64 64;" xml:space="preserve">
<path d="M30,10c-2.6,0-4.8,1.7-5.6,4H8v4h16.4c0.8,2.3,3,4,5.6,4s4.8-1.7,5.6-4H56v-4H35.6C34.8,11.7,32.6,10,30,10z M30,14
	c1.1,0,2,0.9,2,2s-0.9,2-2,2s-2-0.9-2-2S28.9,14,30,14z M44,26c-2.6,0-4.8,1.7-5.6,4H8v4h30.4c0.8,2.3,3,4,5.6,4s4.8-1.7,5.6-4H56
	v-4h-6.4C48.8,27.7,46.6,26,44,26z M44,30c1.1,0,2,0.9,2,2s-0.9,2-2,2s-2-0.9-2-2S42.9,30,44,30z M22,42c-2.6,0-4.8,1.7-5.6,4H8v4
	h8.4c0.8,2.3,3,4,5.6,4s4.8-1.7,5.6-4H56v-4H27.6C26.8,43.7,24.6,42,22,42z M22,46c1.1,0,2,0.9,2,2s-0.9,2-2,2s-2-0.9-2-2
	S20.9,46,22,46z"/>
</svg>
