<?xml version="1.0" encoding="utf-8"?>
<!-- Generator: Adobe Illustrator 21.0.2, SVG Export Plug-In . SVG Version: 6.00 Build 0)  -->
<svg version="1.1" id="Layer_1" xmlns="http://www.w3.org/2000/svg" xmlns:xlink="http://www.w3.org/1999/xlink" x="0px" y="0px"
	 viewBox="0 0 64 64" style="enable-background:new 0 0 64 64;" xml:space="preserve">
<path d="M4,10c-1,0-2.1,0.4-2.9,1.1S0,13,0,14v36c0,1,0.4,2.1,1.1,2.9S3,54,4,54h56c1,0,2.1-0.4,2.9-1.1S64,51,64,50V22
	c0-1-0.4-2.1-1.1-2.9S61,18,60,18h-4v-4c0-1-0.4-2.1-1.1-2.9S53,10,52,10H4z M4,14h48v4h-8c-1,0-2.1,0.4-2.9,1.1S40,21,40,22v28H4
	V14z M44,22h16v28H44V22z M24,44v4h8v-4H24z M48,44v4h8v-4H48z"/>
</svg>
