<?xml version="1.0" encoding="utf-8"?>
<!-- Generator: Adobe Illustrator 21.0.2, SVG Export Plug-In . SVG Version: 6.00 Build 0)  -->
<svg version="1.1" id="Layer_1" xmlns="http://www.w3.org/2000/svg" xmlns:xlink="http://www.w3.org/1999/xlink" x="0px" y="0px"
	 viewBox="0 0 64 64" style="enable-background:new 0 0 64 64;" xml:space="preserve">
<path d="M10,10v2v42h44V10H10z M14,14h36v36H14V14z M20,20v4h4v-4H20z M30,20v4h4v-4H30z M40,20v4h4v-4H40z M20,30v4h4v-4H20z
	 M30,30v4h4v-4H30z M40,30v4h4v-4H40z M20,40v4h4v-4H20z M30,40v4h4v-4H30z M40,40v4h4v-4H40z"/>
</svg>
