<?xml version="1.0" encoding="utf-8"?>
<!-- Generator: Adobe Illustrator 21.0.2, SVG Export Plug-In . SVG Version: 6.00 Build 0)  -->
<svg version="1.1" id="Layer_1" xmlns="http://www.w3.org/2000/svg" xmlns:xlink="http://www.w3.org/1999/xlink" x="0px" y="0px"
	 viewBox="0 0 64 64" style="enable-background:new 0 0 64 64;" xml:space="preserve">
<path d="M29.6,7L29,7.6l-22,22L5.6,31L7,32.4l18,18l1.4,1.4l1.4-1.4l22-22l0.6-0.6V7H29.6z M31.3,11h15.1v15.1l-20,20L11.3,31
	L31.3,11z M52.4,13v4h2v16.3l-19,18.9l-2.5-2.5l-2.8,2.8l3.9,3.9l1.4,1.4l1.4-1.4l21.1-20.8l0.6-0.6V13H52.4z M40.4,15
	c-1.1,0-2,0.9-2,2s0.9,2,2,2s2-0.9,2-2S41.5,15,40.4,15z"/>
</svg>
