<?xml version="1.0" encoding="utf-8"?>
<!-- Generator: Adobe Illustrator 21.0.2, SVG Export Plug-In . SVG Version: 6.00 Build 0)  -->
<svg version="1.1" id="Layer_1" xmlns="http://www.w3.org/2000/svg" xmlns:xlink="http://www.w3.org/1999/xlink" x="0px" y="0px"
	 viewBox="0 0 64 64" style="enable-background:new 0 0 64 64;" xml:space="preserve">
<path d="M20.6,9.6L14,16.1l-2.6-2.6l-2.9,2.9l4,4l1.4,1.4l1.4-1.4l8-8L20.6,9.6z M30,13v4h26v-4H30z M20.6,25.6L14,32.1l-2.6-2.6
	l-2.9,2.9l4,4l1.4,1.4l1.4-1.4l8-8L20.6,25.6z M30,29v4h26v-4H30z M20.6,41.6L14,48.1l-2.6-2.6l-2.9,2.9l4,4l1.4,1.4l1.4-1.4l8-8
	L20.6,41.6z M30,45v4h26v-4H30z"/>
</svg>
