<?xml version="1.0" encoding="utf-8"?>
<!-- Generator: Adobe Illustrator 21.0.2, SVG Export Plug-In . SVG Version: 6.00 Build 0)  -->
<svg version="1.1" id="Layer_1" xmlns="http://www.w3.org/2000/svg" xmlns:xlink="http://www.w3.org/1999/xlink" x="0px" y="0px"
	 viewBox="0 0 64 64" style="enable-background:new 0 0 64 64;" xml:space="preserve">
<path d="M9.5,1C5.4,1,2,4.4,2,8.5v25.1C2,37.6,5.4,41,9.5,41H18v-4H9.5C7.5,37,6,35.5,6,33.5V8.5C6,6.5,7.5,5,9.5,5h41.1
	C52.5,5,54,6.5,54,8.5V21h4V8.5C58,4.4,54.6,1,50.5,1H9.5z M32,11c-3.3,0-6,2.7-6,6l0,19.3l-4.2,5.4c-2.6,3.3-2.4,8,0.3,11.1
	l4.7,5.4c2.7,3,6.5,4.8,10.5,4.8H48c7.7,0,14-6.3,14-14V31c0-3.3-2.7-6-6-6c-1.1,0-2.1,0.3-2.9,0.8C52,24.1,50.1,23,48,23
	c-1.2,0-2.2,0.7-3.1,1.3c-1-1.8-2.6-3.3-4.9-3.3c-0.7,0-1.4,0.1-2,0.4V17C38,13.7,35.3,11,32,11z M32,15c1.1,0,2,0.9,2,2v9.9
	c0,0,0,0.1,0,0.1v6h0h4h0v-6c0-1.1,0.9-2,2-2c1.1,0,2,0.9,2,2v2v4h4v-4c0-1.1,0.9-2,2-2s2,0.9,2,2v2v2h4v-2c0-1.1,0.9-2,2-2
	s2,0.9,2,2v18c0,5.5-4.5,10-10,10H37.4c-2.9,0-5.6-1.2-7.5-3.4l-4.7-5.4c-1.5-1.7-1.6-4.2-0.2-6l1-1.3V45h4V35h0l0-18
	C30,15.9,30.9,15,32,15z"/>
</svg>
