<?xml version="1.0" encoding="utf-8"?>
<!-- Generator: Adobe Illustrator 21.0.2, SVG Export Plug-In . SVG Version: 6.00 Build 0)  -->
<svg version="1.1" id="Layer_1" xmlns="http://www.w3.org/2000/svg" xmlns:xlink="http://www.w3.org/1999/xlink" x="0px" y="0px"
	 viewBox="0 0 64 64" style="enable-background:new 0 0 64 64;" xml:space="preserve">
<g id="Layer_1_1_">
</g>
<g id="Layer_2">
	<path d="M59.7,26.8L59.7,26.8L59.7,26.8c-0.2-0.8-0.8-2.6-1.4-3.8l0,0c-2-3.2-5-5.4-8.8-6.6c-1-0.4-2.6-0.6-4.2-0.6
		c-1.8,0-3.4,0.2-4.6,0.8l-2,0.8c-0.6-0.4-1.2-1.2-1.8-1.8c-1.6-1.8-3.4-3.8-6-4.8c-2.4-1-4.6-1.4-7.2-1.4c-6,0-12.2,2.8-15.4,6.8
		c-1.4,1.6-2.6,3.8-3.6,6.2v0.2v0.2c-2.6,8.6,1.8,16.6,7.2,20.6c2,1.6,4.6,2.6,7.6,3l0.4,0.8l0.6,0.8c0.6,0.8,1.2,1.6,2,2.8l1.6,2.2
		l2.6-0.6c2.4-0.6,5.2-0.8,7.6-0.8c2.6,0,5,0.4,6.4,1l4.4,2l1-5.2c0.2-1,0.8-3,1.2-4.4c5.6-0.8,9.8-4.4,11.8-9.8
		C59.9,33.2,60.5,29.8,59.7,26.8z M55.5,33.8c-1.6,4.2-5,7.4-11,7.4c0,0.2,0,0.2,0,0.2c-0.6,0.8-2,5.2-2.4,7c-1.8-0.8-4.8-1.2-8-1.2
		c-2.8,0-5.6,0.4-8.4,1c-1-1.4-1.8-2.6-2.4-3.4h0.2v-0.2c2.2-0.2,9-3,9.8-4.2l-1.6-0.2c-0.6,0.6-2,0.6-2.8,1c-2,0.8-4.4,1.2-7,1.2
		c-2.8,0-5.6-0.6-7.6-2.2c-3.8-2.6-8-9-5.8-16.2c0.8-2,1.8-3.8,3-5.2c2.2-3,7.2-5.4,12.2-5.4c1.8,0,3.6,0.4,5.4,1
		c3,1.4,5,4.8,7.4,6.6c1,0.8,5.4,3.6,8.2,3.6c0.6,0,1.2-0.2,1.8-0.6c-1.8,0-4-2.6-4.6-3.6c1-0.4,2.2-0.4,3.2-0.4
		c1.4,0,2.6,0.2,3,0.4c3,1,5.2,2.6,6.6,5c0.4,0.8,0.8,1.8,1,2.6C56.3,29.8,55.9,32.4,55.5,33.8z"/>
</g>
</svg>
